HIERARCHY
ROOT mixamorig:Hips
{
	OFFSET 0.000000 201.639420 0.000000
	CHANNELS 6 Xposition Yposition Zposition Xrotation Yrotation Zrotation
	JOINT mixamorig:Spine
	{
		OFFSET 0.006200 19.524994 -2.481800
		CHANNELS 3 Xrotation Yrotation Zrotation
		JOINT mixamorig:Spine1
		{
			OFFSET -0.000900 22.835007 -2.825400
			CHANNELS 3 Xrotation Yrotation Zrotation
			JOINT mixamorig:Spine2
			{
				OFFSET -0.020600 26.552490 -3.193300
				CHANNELS 3 Xrotation Yrotation Zrotation
				JOINT mixamorig:Neck
				{
					OFFSET -0.060000 30.701813 1.352200
					CHANNELS 3 Xrotation Yrotation Zrotation
					JOINT mixamorig:Head
					{
						OFFSET -0.087200 22.547607 3.670900
						CHANNELS 3 Xrotation Yrotation Zrotation
						JOINT mixamorig:HeadTop_End
						{
							OFFSET -0.830600 40.355194 7.893500
							CHANNELS 3 Xrotation Yrotation Zrotation
							End Site
							{
								OFFSET 0.000000 30.592346 0.000000
							}
						}
						JOINT mixamorig:RightEye
						{
							OFFSET -6.302100 18.118591 16.197100
							CHANNELS 3 Xrotation Yrotation Zrotation
							End Site
							{
								OFFSET 0.000000 30.592346 0.000000
							}
						}
						JOINT mixamorig:LeftEye
						{
							OFFSET 6.741500 18.382690 16.401899
							CHANNELS 3 Xrotation Yrotation Zrotation
							End Site
							{
								OFFSET 0.000000 30.592346 0.000000
							}
						}
					}
				}
				JOINT mixamorig:LeftShoulder
				{
					OFFSET 11.924900 18.230499 1.425400
					CHANNELS 3 Xrotation Yrotation Zrotation
					JOINT mixamorig:LeftArm
					{
						OFFSET 25.435989 -0.697632 -5.229300
						CHANNELS 3 Xrotation Yrotation Zrotation
						JOINT mixamorig:LeftForeArm
						{
							OFFSET 54.684776 0.000000 0.000000
							CHANNELS 3 Xrotation Yrotation Zrotation
							JOINT mixamorig:LeftHand
							{
								OFFSET 55.098175 0.000000 0.000000
								CHANNELS 3 Xrotation Yrotation Zrotation
								JOINT mixamorig:LeftHandMiddle1
								{
									OFFSET 23.369751 0.000000 0.000000
									CHANNELS 3 Xrotation Yrotation Zrotation
									JOINT mixamorig:LeftHandMiddle2
									{
										OFFSET 6.378677 0.000000 0.000000
										CHANNELS 3 Xrotation Yrotation Zrotation
										JOINT mixamorig:LeftHandMiddle3
										{
											OFFSET 6.148331 0.000000 0.000000
											CHANNELS 3 Xrotation Yrotation Zrotation
											JOINT mixamorig:LeftHandMiddle4
											{
												OFFSET 6.582504 0.000000 0.000000
												CHANNELS 3 Xrotation Yrotation Zrotation
												End Site
												{
													OFFSET -1.168900 6.395691 1.028606
												}
											}
										}
									}
								}
								JOINT mixamorig:LeftHandThumb1
								{
									OFFSET 7.235672 -3.848206 5.434273
									CHANNELS 3 Xrotation Yrotation Zrotation
									JOINT mixamorig:LeftHandThumb2
									{
										OFFSET 6.568451 -3.792297 3.792300
										CHANNELS 3 Xrotation Yrotation Zrotation
										JOINT mixamorig:LeftHandThumb3
										{
											OFFSET 6.063080 -3.500519 3.500518
											CHANNELS 3 Xrotation Yrotation Zrotation
											JOINT mixamorig:LeftHandThumb4
											{
												OFFSET 4.793182 -2.767334 2.767349
												CHANNELS 3 Xrotation Yrotation Zrotation
												End Site
												{
													OFFSET 0.101639 6.054260 1.275483
												}
											}
										}
									}
								}
								JOINT mixamorig:LeftHandIndex1
								{
									OFFSET 23.101074 -0.309540 4.992809
									CHANNELS 3 Xrotation Yrotation Zrotation
									JOINT mixamorig:LeftHandIndex2
									{
										OFFSET 6.226883 0.000000 0.000000
										CHANNELS 3 Xrotation Yrotation Zrotation
										JOINT mixamorig:LeftHandIndex3
										{
											OFFSET 6.094330 0.000000 0.000000
											CHANNELS 3 Xrotation Yrotation Zrotation
											JOINT mixamorig:LeftHandIndex4
											{
												OFFSET 5.482605 0.000000 0.000000
												CHANNELS 3 Xrotation Yrotation Zrotation
												End Site
												{
													OFFSET -1.427902 5.233032 0.797164
												}
											}
										}
									}
								}
								JOINT mixamorig:LeftHandRing1
								{
									OFFSET 22.299240 0.021149 -3.964172
									CHANNELS 3 Xrotation Yrotation Zrotation
									JOINT mixamorig:LeftHandRing2
									{
										OFFSET 6.321869 0.000000 0.000000
										CHANNELS 3 Xrotation Yrotation Zrotation
										JOINT mixamorig:LeftHandRing3
										{
											OFFSET 5.899796 0.000000 0.000000
											CHANNELS 3 Xrotation Yrotation Zrotation
											JOINT mixamorig:LeftHandRing4
											{
												OFFSET 6.517899 0.000000 0.000000
												CHANNELS 3 Xrotation Yrotation Zrotation
												End Site
												{
													OFFSET -1.637299 6.232208 0.980890
												}
											}
										}
									}
								}
								JOINT mixamorig:LeftHandPinky1
								{
									OFFSET 20.463791 -0.302338 -8.562233
									CHANNELS 3 Xrotation Yrotation Zrotation
									JOINT mixamorig:LeftHandPinky2
									{
										OFFSET 6.908646 0.000000 0.000000
										CHANNELS 3 Xrotation Yrotation Zrotation
										JOINT mixamorig:LeftHandPinky3
										{
											OFFSET 4.622849 0.000000 0.000000
											CHANNELS 3 Xrotation Yrotation Zrotation
											JOINT mixamorig:LeftHandPinky4
											{
												OFFSET 5.216080 0.000000 0.000000
												CHANNELS 3 Xrotation Yrotation Zrotation
												End Site
												{
													OFFSET -0.606308 5.116241 0.814926
												}
											}
										}
									}
								}
							}
						}
					}
				}
				JOINT mixamorig:RightShoulder
				{
					OFFSET -12.001300 18.284088 1.348900
					CHANNELS 3 Xrotation Yrotation Zrotation
					JOINT mixamorig:RightArm
					{
						OFFSET -25.308500 -0.751312 -5.164599
						CHANNELS 3 Xrotation Yrotation Zrotation
						JOINT mixamorig:RightForeArm
						{
							OFFSET -54.684429 0.000000 0.000000
							CHANNELS 3 Xrotation Yrotation Zrotation
							JOINT mixamorig:RightHand
							{
								OFFSET -55.150291 0.000000 0.000000
								CHANNELS 3 Xrotation Yrotation Zrotation
								JOINT mixamorig:RightHandMiddle1
								{
									OFFSET -23.317566 0.000000 0.000000
									CHANNELS 3 Xrotation Yrotation Zrotation
									JOINT mixamorig:RightHandMiddle2
									{
										OFFSET -6.378403 0.000000 0.000000
										CHANNELS 3 Xrotation Yrotation Zrotation
										JOINT mixamorig:RightHandMiddle3
										{
											OFFSET -6.148193 0.000000 0.000000
											CHANNELS 3 Xrotation Yrotation Zrotation
											JOINT mixamorig:RightHandMiddle4
											{
												OFFSET -6.583389 0.000000 0.000000
												CHANNELS 3 Xrotation Yrotation Zrotation
												End Site
												{
													OFFSET 1.171692 6.395905 1.029786
												}
											}
										}
									}
								}
								JOINT mixamorig:RightHandThumb1
								{
									OFFSET -7.190521 -3.860474 5.435846
									CHANNELS 3 Xrotation Yrotation Zrotation
									JOINT mixamorig:RightHandThumb2
									{
										OFFSET -6.567429 -3.791718 3.791708
										CHANNELS 3 Xrotation Yrotation Zrotation
										JOINT mixamorig:RightHandThumb3
										{
											OFFSET -6.062469 -3.500153 3.500166
											CHANNELS 3 Xrotation Yrotation Zrotation
											JOINT mixamorig:RightHandThumb4
											{
												OFFSET -4.792618 -2.767029 2.767022
												CHANNELS 3 Xrotation Yrotation Zrotation
												End Site
												{
													OFFSET -0.100327 6.053253 1.276754
												}
											}
										}
									}
								}
								JOINT mixamorig:RightHandIndex1
								{
									OFFSET -23.048981 -0.310791 4.992554
									CHANNELS 3 Xrotation Yrotation Zrotation
									JOINT mixamorig:RightHandIndex2
									{
										OFFSET -6.227539 0.000000 0.000000
										CHANNELS 3 Xrotation Yrotation Zrotation
										JOINT mixamorig:RightHandIndex3
										{
											OFFSET -6.095047 0.000000 0.000000
											CHANNELS 3 Xrotation Yrotation Zrotation
											JOINT mixamorig:RightHandIndex4
											{
												OFFSET -5.484772 0.000000 0.000000
												CHANNELS 3 Xrotation Yrotation Zrotation
												End Site
												{
													OFFSET 1.420593 5.237305 0.797056
												}
											}
										}
									}
								}
								JOINT mixamorig:RightHandRing1
								{
									OFFSET -22.246323 0.020569 -3.963762
									CHANNELS 3 Xrotation Yrotation Zrotation
									JOINT mixamorig:RightHandRing2
									{
										OFFSET -6.322128 0.000000 0.000000
										CHANNELS 3 Xrotation Yrotation Zrotation
										JOINT mixamorig:RightHandRing3
										{
											OFFSET -5.900024 0.000000 0.000000
											CHANNELS 3 Xrotation Yrotation Zrotation
											JOINT mixamorig:RightHandRing4
											{
												OFFSET -6.518356 0.000000 0.000000
												CHANNELS 3 Xrotation Yrotation Zrotation
												End Site
												{
													OFFSET 1.636398 6.232697 0.982186
												}
											}
										}
									}
								}
								JOINT mixamorig:RightHandPinky1
								{
									OFFSET -20.411011 -0.303314 -8.561701
									CHANNELS 3 Xrotation Yrotation Zrotation
									JOINT mixamorig:RightHandPinky2
									{
										OFFSET -6.907349 0.000000 0.000000
										CHANNELS 3 Xrotation Yrotation Zrotation
										JOINT mixamorig:RightHandPinky3
										{
											OFFSET -4.623840 0.000000 0.000000
											CHANNELS 3 Xrotation Yrotation Zrotation
											JOINT mixamorig:RightHandPinky4
											{
												OFFSET -5.218353 0.000000 0.000000
												CHANNELS 3 Xrotation Yrotation Zrotation
												End Site
												{
													OFFSET 0.602097 5.118835 0.816273
												}
											}
										}
									}
								}
							}
						}
					}
				}
			}
		}
	}
	JOINT mixamorig:LeftUpLeg
	{
		OFFSET 18.168400 -13.561905 -0.039000
		CHANNELS 3 Xrotation Yrotation Zrotation
		JOINT mixamorig:LeftLeg
		{
			OFFSET 0.577358 -80.825211 -3.695000
			CHANNELS 3 Xrotation Yrotation Zrotation
			JOINT mixamorig:LeftFoot
			{
				OFFSET -0.577356 -83.370262 -6.520700
				CHANNELS 3 Xrotation Yrotation Zrotation
				JOINT mixamorig:LeftToeBase
				{
					OFFSET 0.750401 -20.798306 25.135401
					CHANNELS 3 Xrotation Yrotation Zrotation
					JOINT mixamorig:LeftToe_End
					{
						OFFSET -0.000500 0.001200 19.917799
						CHANNELS 3 Xrotation Yrotation Zrotation
						End Site
						{
							OFFSET 0.000000 19.917805 0.000000
						}
					}
				}
			}
		}
	}
	JOINT mixamorig:RightUpLeg
	{
		OFFSET -18.162500 -13.585098 -0.041000
		CHANNELS 3 Xrotation Yrotation Zrotation
		JOINT mixamorig:RightLeg
		{
			OFFSET -0.595024 -80.945297 -3.631900
			CHANNELS 3 Xrotation Yrotation Zrotation
			JOINT mixamorig:RightFoot
			{
				OFFSET 0.595024 -83.218193 -6.561200
				CHANNELS 3 Xrotation Yrotation Zrotation
				JOINT mixamorig:RightToeBase
				{
					OFFSET -0.753601 -20.807106 25.115000
					CHANNELS 3 Xrotation Yrotation Zrotation
					JOINT mixamorig:RightToe_End
					{
						OFFSET 0.000299 0.001700 19.918200
						CHANNELS 3 Xrotation Yrotation Zrotation
						End Site
						{
							OFFSET 0.000000 19.918203 0.000000
						}
					}
				}
			}
		}
	}
}
MOTION
Frames: 4
Frame Time: 0.033333
1.088032 187.425308 -0.735584 -19.967436 -53.824749 -16.011847 4.792525 1.830597 -0.235261 9.585784 3.635388 -0.573694 9.587463 3.630534 -0.571971 3.229469 8.292644 1.344286 24.707552 14.101277 -4.928253 -0.000003 -0.000001 -0.000001 -0.000003 -0.000001 -0.000001 -0.000003 -0.000001 -0.000001 -29.040486 4.348842 -6.416717 -31.617895 -15.339799 -49.055112 0.000052 -69.171634 0.000046 -110.703426 5.865221 31.910593 0.405919 5.507036 -52.453172 3.387132 5.308628 -65.057449 0.282027 1.797451 -17.832393 0.000001 0.000000 -0.000001 1.567993 0.456384 2.719334 19.473190 -1.474884 7.636917 -4.536189 -9.613101 1.492977 -0.000002 0.000004 -0.000002 -1.882820 2.129421 -39.817015 2.947090 5.081718 -60.200536 0.514384 2.402409 -24.167380 0.000002 0.000000 -0.000000 -0.074377 5.736786 -61.061427 4.422100 5.674492 -75.840385 0.582667 2.548968 -25.747990 -0.000003 -0.000005 0.000001 2.216805 7.072460 -64.435431 4.422623 5.674610 -75.845774 1.294123 3.673943 -38.798456 -0.000003 -0.000006 -0.000003 0.502981 9.233617 11.361609 -44.533407 61.742608 60.271966 0.000804 100.422168 -0.000802 -60.299089 -25.149339 -29.132311 3.413073 -7.186242 51.650242 6.296812 -4.359602 110.634687 0.248716 -1.503066 18.790257 0.000000 0.000000 -0.000001 8.377146 -4.904117 11.021994 21.620194 -18.183878 -18.379214 -0.702953 -49.821213 -32.535210 0.000001 0.000001 -0.000003 -1.101388 1.407151 15.159506 1.422355 -3.352153 45.974092 0.615864 -2.316432 29.773112 0.000002 0.000000 -0.000001 -3.349017 -2.600407 57.010568 5.440865 -4.590882 99.698154 1.689389 -3.590680 50.382221 -0.000002 0.000001 -0.000002 -3.996436 -3.303925 64.593850 4.058858 -4.618648 82.610551 2.315538 -4.026782 59.787214 0.000000 0.000000 0.000001 -32.175498 -1.123056 1.779106 67.264823 -3.477409 2.701761 1.289514 0.419503 -14.346636 -1.956815 -1.376751 10.588071 0.000002 0.000001 0.000001 -16.046944 -10.894939 -0.022861 51.805571 0.901034 -2.337891 -20.415943 -14.266242 -12.807958 -8.235962 0.000007 -0.000004 -0.000001 -0.000000 -0.000000 
17.425106 186.368439 -0.684666 -21.286997 -55.303960 -17.904743 4.554957 1.518519 -0.270135 9.151105 3.046713 -0.735367 9.153005 3.037675 -0.733698 3.364299 8.177467 2.067381 25.801873 16.993760 -5.722241 -0.000000 0.000002 -0.000001 -0.000000 0.000002 -0.000001 -0.000000 0.000002 -0.000001 -28.663866 5.920627 -5.991822 -30.820327 -13.207492 -47.280352 0.000214 -72.107939 0.000209 -110.243836 6.729406 34.163568 0.405919 5.507033 -52.453172 3.387136 5.308628 -65.057449 0.282028 1.797452 -17.832391 0.000001 -0.000001 -0.000001 1.567992 0.456383 2.719335 19.473192 -1.474889 7.636920 -4.536189 -9.613096 1.492978 0.000001 0.000000 0.000000 -1.882817 2.129419 -39.817011 2.947092 5.081723 -60.200529 0.514377 2.402407 -24.167378 0.000002 0.000000 0.000001 -0.074372 5.736790 -61.061427 4.422099 5.674492 -75.840392 0.582670 2.548971 -25.747995 -0.000001 0.000000 -0.000002 2.216804 7.072459 -64.435424 4.422625 5.674610 -75.845781 1.294122 3.673946 -38.798446 -0.000001 -0.000000 0.000001 0.496837 9.348225 11.449511 -46.994369 64.032149 64.008913 -0.000143 99.197002 0.000095 -61.069411 -23.779597 -28.530108 3.391204 -7.141285 52.291727 6.290784 -4.361838 110.555361 0.248716 -1.503066 18.790264 -0.000001 0.000000 -0.000002 8.252589 -4.703186 11.058122 22.313067 -17.462197 -18.410483 -0.399492 -49.808526 -32.245467 0.000001 0.000002 0.000002 -0.999803 1.173996 14.692785 1.421729 -3.351576 45.963468 0.609687 -2.305608 29.619856 -0.000000 0.000000 -0.000001 -3.358040 -2.633771 57.294816 5.433774 -4.592106 99.609355 1.689390 -3.590680 50.382228 -0.000001 -0.000000 -0.000003 -4.045072 -3.295148 64.693475 4.067688 -4.619782 82.720387 2.323294 -4.031281 59.897569 0.000001 -0.000000 -0.000000 -29.224105 -1.414891 6.170396 74.527158 -4.740459 4.284238 4.608993 -0.042412 -11.830344 -5.939398 -0.965377 3.861561 -0.000000 0.000000 0.000001 -20.929843 -8.857940 -1.950080 51.196014 -1.200785 -2.916019 -16.952284 -11.298014 -8.202910 -4.775488 0.000038 -0.000000 0.000000 -0.000000 -0.000000 
34.031837 186.833023 -0.384653 -21.867624 -56.226899 -19.197133 4.324558 1.095165 -0.697857 8.717699 2.165903 -0.725388 8.719761 2.143377 -0.720957 3.311631 8.021286 2.675355 26.969176 19.996921 -6.523492 -0.000001 0.000000 -0.000001 -0.000001 0.000000 -0.000001 -0.000001 0.000000 -0.000001 -28.294453 7.442440 -5.582723 -30.803931 -10.915257 -45.481653 0.000200 -74.964816 0.000185 -109.716129 7.906675 36.529214 0.405917 5.507031 -52.453172 3.387133 5.308627 -65.057449 0.282019 1.797449 -17.832383 0.000004 -0.000001 0.000003 1.567988 0.456385 2.719335 19.473187 -1.474880 7.636918 -4.536189 -9.613099 1.492977 0.000001 0.000003 -0.000002 -1.882822 2.129418 -39.817018 2.947087 5.081725 -60.200536 0.514377 2.402411 -24.167376 0.000000 -0.000002 0.000001 -0.074375 5.736783 -61.061427 4.422102 5.674488 -75.840392 0.582665 2.548968 -25.747995 0.000001 0.000000 -0.000003 2.216802 7.072456 -64.435424 4.422625 5.674611 -75.845774 1.294127 3.673946 -38.798449 -0.000001 -0.000005 0.000000 0.475956 9.528369 11.789783 -50.395130 66.628393 68.029661 0.000393 97.934968 -0.000408 -62.199746 -22.186007 -27.977473 3.463486 -7.222567 51.721836 6.288156 -4.362823 110.520780 0.248715 -1.503066 18.790259 0.000001 -0.000001 0.000001 7.560626 -4.882693 10.546431 23.140684 -16.601763 -18.433557 -0.227534 -49.800893 -32.081282 0.000002 0.000001 -0.000001 -0.950538 1.174102 14.114371 1.421618 -3.351441 45.961480 0.608353 -2.303293 29.587089 0.000001 0.000000 -0.000000 -3.311855 -2.654881 57.230449 5.433569 -4.592160 99.607080 1.689390 -3.590681 50.382221 -0.000001 0.000000 -0.000002 -4.017666 -3.352509 64.999796 4.039691 -4.616157 82.372949 2.298936 -4.017089 59.550439 -0.000001 -0.000000 0.000002 -24.864423 -2.564129 7.906000 76.562500 -0.928623 6.887040 5.064827 -0.148749 -9.289921 4.612270 0.464583 -6.572160 -0.000003 0.000001 -0.000001 -25.473150 -10.013223 -6.573472 47.596911 -0.744126 -1.267949 -7.912574 -6.697964 -5.173646 -2.232341 -0.003850 0.605194 -0.000000 -0.000000 0.000000 
51.037720 188.732056 0.089247 -21.323369 -56.773642 -19.437501 4.170854 0.641914 -1.395645 8.436454 1.256008 -0.616015 8.440206 1.213356 -0.606962 2.681753 7.855291 3.011320 27.874593 22.656677 -7.222070 0.000001 0.000002 -0.000001 0.000001 0.000002 -0.000001 0.000001 0.000002 -0.000001 -27.953371 8.828040 -5.213103 -32.016351 -9.054112 -44.212146 -0.000209 -77.130164 -0.000219 -109.135283 9.204461 38.549567 0.405919 5.507038 -52.453172 3.387134 5.308624 -65.057443 0.282016 1.797450 -17.832389 0.000001 0.000001 -0.000001 1.567990 0.456389 2.719335 19.473190 -1.474878 7.636916 -4.536188 -9.613099 1.492976 0.000003 0.000002 -0.000001 -1.882823 2.129427 -39.817018 2.947089 5.081725 -60.200536 0.514376 2.402411 -24.167380 -0.000002 -0.000001 -0.000002 -0.074375 5.736796 -61.061427 4.422098 5.674492 -75.840385 0.582664 2.548969 -25.747995 -0.000002 -0.000001 0.000001 2.216803 7.072464 -64.435424 4.422622 5.674613 -75.845774 1.294124 3.673943 -38.798446 -0.000005 -0.000001 0.000001 0.519454 8.462917 11.260970 -58.753697 67.927358 77.773711 0.000294 96.247932 -0.000363 -61.781513 -21.333874 -26.276815 3.440148 -7.193080 51.970520 6.280248 -4.365773 110.416824 0.248716 -1.503066 18.790260 0.000001 0.000000 0.000001 6.928672 -5.064273 10.043945 23.613035 -16.111474 -18.438886 -0.303907 -49.804322 -32.154191 -0.000001 0.000001 -0.000001 -0.872699 0.951256 13.822030 1.421152 -3.350987 45.953427 0.606327 -2.299721 29.536644 -0.000000 -0.000000 0.000000 -3.332458 -2.616231 57.046338 5.434167 -4.592035 99.614436 1.689390 -3.590680 50.382221 -0.000001 0.000000 0.000002 -4.059131 -3.330603 64.982918 4.009310 -4.612005 81.994877 2.272606 -4.001541 59.173508 -0.000002 -0.000000 0.000001 -20.275587 -2.661437 8.179418 74.306147 0.746215 9.686100 3.572526 -0.000544 -3.646380 9.106540 0.319055 -5.512689 -0.000000 0.000002 -0.000003 -26.958794 -10.703483 -9.005592 37.350903 0.408391 -1.152506 5.559764 -4.666688 -0.574839 -2.102041 -0.190123 3.902298 0.000000 -0.000001 -0.000000 
